<mxfile host="app.diagrams.net" modified="2023-06-16T20:46:49.359Z" agent="Mozilla/5.0 (Windows NT 10.0; Win64; x64) AppleWebKit/537.36 (KHTML, like Gecko) Chrome/114.0.0.0 Safari/537.36" etag="FRG87pSiLa4RLX-YplyQ" version="21.4.0" type="github">
  <diagram name="Page-1" id="G-WYQBysktPHdsAoRA6E">
    <mxGraphModel dx="1050" dy="541" grid="1" gridSize="10" guides="1" tooltips="1" connect="1" arrows="1" fold="1" page="1" pageScale="1" pageWidth="827" pageHeight="1169" math="0" shadow="0">
      <root>
        <mxCell id="0" />
        <mxCell id="1" parent="0" />
        <mxCell id="Djv_yd8SiH6L3B0USrNx-1" value="" style="rounded=0;whiteSpace=wrap;html=1;" vertex="1" parent="1">
          <mxGeometry x="240" y="210" width="250" height="190" as="geometry" />
        </mxCell>
        <mxCell id="Djv_yd8SiH6L3B0USrNx-3" value="Student system" style="shape=umlFrame;whiteSpace=wrap;html=1;pointerEvents=0;" vertex="1" parent="1">
          <mxGeometry x="260" y="1080" width="300" height="440" as="geometry" />
        </mxCell>
        <mxCell id="Djv_yd8SiH6L3B0USrNx-5" value="Log in" style="ellipse;whiteSpace=wrap;html=1;" vertex="1" parent="1">
          <mxGeometry x="570" y="785" width="140" height="70" as="geometry" />
        </mxCell>
        <mxCell id="Djv_yd8SiH6L3B0USrNx-21" style="edgeStyle=orthogonalEdgeStyle;rounded=0;orthogonalLoop=1;jettySize=auto;html=1;exitX=1;exitY=0.3333333333333333;exitDx=0;exitDy=0;exitPerimeter=0;entryX=-0.003;entryY=0.717;entryDx=0;entryDy=0;entryPerimeter=0;" edge="1" parent="1" source="Djv_yd8SiH6L3B0USrNx-6" target="Djv_yd8SiH6L3B0USrNx-14">
          <mxGeometry relative="1" as="geometry" />
        </mxCell>
        <mxCell id="Djv_yd8SiH6L3B0USrNx-6" value="Actor" style="shape=umlActor;verticalLabelPosition=bottom;verticalAlign=top;html=1;" vertex="1" parent="1">
          <mxGeometry x="170" y="1265" width="30" height="60" as="geometry" />
        </mxCell>
        <mxCell id="Djv_yd8SiH6L3B0USrNx-12" value="QA details" style="ellipse;whiteSpace=wrap;html=1;" vertex="1" parent="1">
          <mxGeometry x="340" y="1420" width="140" height="70" as="geometry" />
        </mxCell>
        <mxCell id="Djv_yd8SiH6L3B0USrNx-13" value="Course details" style="ellipse;whiteSpace=wrap;html=1;" vertex="1" parent="1">
          <mxGeometry x="340" y="1260" width="140" height="70" as="geometry" />
        </mxCell>
        <mxCell id="Djv_yd8SiH6L3B0USrNx-14" value="View Courses" style="ellipse;whiteSpace=wrap;html=1;" vertex="1" parent="1">
          <mxGeometry x="340" y="1110" width="140" height="70" as="geometry" />
        </mxCell>
      </root>
    </mxGraphModel>
  </diagram>
</mxfile>
